<mxfile host="app.diagrams.net" modified="2023-10-17T16:56:16.398Z" agent="Mozilla/5.0 (X11; Linux x86_64) AppleWebKit/537.36 (KHTML, like Gecko) Chrome/114.0.0.0 Safari/537.36" version="22.0.4" etag="KpJwT4Su6_9PqxrRFFWi" type="github">
  <diagram name="PÃ¡gina-1" id="4fhG7ZtcJp6H3XBkcJiz">
    <mxGraphModel>
      <root>
        <mxCell id="0" />
        <mxCell id="1" parent="0" />
      </root>
    </mxGraphModel>
  </diagram>
</mxfile>
